<svg width="42" height="42" viewBox="0 0 42 42" fill="none" xmlns="http://www.w3.org/2000/svg">
<mask id="mask0_1_595" style="mask-type:alpha" maskUnits="userSpaceOnUse" x="0" y="0" width="42" height="42">
<rect width="42" height="42" fill="#D9D9D9" style="fill:#D9D9D9;fill:color(display-p3 0.8510 0.8510 0.8510);fill-opacity:1;"/>
</mask>
<g mask="url(#mask0_1_595)">
<path d="M34.9125 36.75C31.2667 36.75 27.6646 35.9552 24.1063 34.3656C20.5479 32.776 17.3104 30.5229 14.3938 27.6063C11.4771 24.6896 9.22396 21.4521 7.63438 17.8938C6.04479 14.3354 5.25 10.7333 5.25 7.0875C5.25 6.5625 5.425 6.125 5.775 5.775C6.125 5.425 6.5625 5.25 7.0875 5.25H14.175C14.5833 5.25 14.9479 5.38854 15.2688 5.66563C15.5896 5.94271 15.7792 6.27083 15.8375 6.65L16.975 12.775C17.0333 13.2417 17.0188 13.6354 16.9313 13.9563C16.8438 14.2771 16.6833 14.5542 16.45 14.7875L12.2063 19.075C12.7896 20.1542 13.4823 21.1969 14.2844 22.2031C15.0865 23.2094 15.9688 24.1792 16.9313 25.1125C17.8354 26.0167 18.7833 26.8552 19.775 27.6281C20.7667 28.401 21.8167 29.1083 22.925 29.75L27.0375 25.6375C27.3 25.375 27.6427 25.1781 28.0656 25.0469C28.4885 24.9156 28.9042 24.8792 29.3125 24.9375L35.35 26.1625C35.7583 26.2792 36.0938 26.4906 36.3562 26.7969C36.6187 27.1031 36.75 27.4458 36.75 27.825V34.9125C36.75 35.4375 36.575 35.875 36.225 36.225C35.875 36.575 35.4375 36.75 34.9125 36.75ZM10.5438 15.75L13.4313 12.8625L12.6875 8.75H8.79375C8.93958 9.94583 9.14375 11.1271 9.40625 12.2938C9.66875 13.4604 10.0479 14.6125 10.5438 15.75ZM26.2063 31.4125C27.3438 31.9083 28.5031 32.3021 29.6844 32.5938C30.8656 32.8854 32.0542 33.075 33.25 33.1625V29.3125L29.1375 28.4813L26.2063 31.4125Z" fill="#0cb7f1f6" style="fill:#0cb7f1f6;fill-opacity:1;"/>
</g>
</svg>
