<svg width="36" height="40" viewBox="0 0 36 40" fill="none" xmlns="http://www.w3.org/2000/svg">
<path d="M15.1923 0.588553C15.7615 0.260353 16.3641 0.0962524 17 0.0962524C17.6359 0.0962524 18.2385 0.260353 18.8077 0.588553L32.1923 8.29235C32.7615 8.62055 33.2051 9.05902 33.523 9.60775C33.841 10.1565 34 10.759 34 11.4154V18.4538C33.541 18.1487 33.0647 17.8826 32.5711 17.6557C32.0775 17.4288 31.5538 17.2307 31 17.0615V12.6231L23.6654 16.85C21.9526 17.291 20.3955 18.0154 18.9943 19.0231C17.593 20.0307 16.4283 21.2512 15.5001 22.6846V19.8615L3.00001 12.6231V26.5538C3.00001 26.6564 3.02566 26.7526 3.07696 26.8423C3.12823 26.9321 3.20514 27.009 3.30771 27.0731L13.5808 33.0385C13.7141 33.8359 13.9257 34.6045 14.2154 35.3442C14.5051 36.0839 14.8628 36.791 15.2885 37.4653C15.2475 37.4448 15.2218 37.4294 15.2116 37.4192C15.2013 37.4089 15.1757 37.3935 15.1347 37.373L1.80776 29.7077C1.23853 29.3795 0.794944 28.941 0.47701 28.3923C0.159044 27.8436 6.10352e-05 27.241 6.10352e-05 26.5846V11.4154C6.10352e-05 10.759 0.159044 10.1565 0.47701 9.60775C0.794944 9.05902 1.23853 8.62055 1.80776 8.29235L15.1923 0.588553ZM16.6923 3.1731L4.64996 10.1385L17 17.277L29.3501 10.1385L17.3077 3.1731C17.2051 3.109 17.1026 3.07695 17 3.07695C16.8974 3.07695 16.7949 3.109 16.6923 3.1731ZM27 39.2306C24.5026 39.2306 22.3783 38.355 20.627 36.6038C18.8757 34.8525 18.0001 32.7281 18.0001 30.2307C18.0001 27.7333 18.8757 25.609 20.627 23.8577C22.3783 22.1064 24.5026 21.2308 27 21.2308C29.4974 21.2308 31.6218 22.1064 33.3731 23.8577C35.1243 25.609 36 27.7333 36 30.2307C36 32.7281 35.1243 34.8525 33.3731 36.6038C31.6218 38.355 29.4974 39.2306 27 39.2306ZM27.8846 29.8692V24.3461H26.1154V30.5923L30.3 34.7769L31.5462 33.5307L27.8846 29.8692Z" fill="#FF9800" style="fill:#FF9800;fill:color(display-p3 1.0000 0.5961 0.0000);fill-opacity:1;"/>
</svg>
