<svg width="42" height="42" viewBox="0 0 42 42" fill="none" xmlns="http://www.w3.org/2000/svg">
<mask id="mask0_1_590" style="mask-type:alpha" maskUnits="userSpaceOnUse" x="0" y="0" width="42" height="42">
<rect width="42" height="42" fill="#D9D9D9" style="fill:#D9D9D9;fill:color(display-p3 0.8510 0.8510 0.8510);fill-opacity:1;"/>
</mask>
<g mask="url(#mask0_1_590)">
<path d="M21 38.4998C17.9083 38.4998 15.3854 38.0112 13.4313 37.0341C11.4771 36.057 10.5 34.7956 10.5 33.2498C10.5 32.2289 10.9229 31.3393 11.7688 30.581C12.6146 29.8227 13.7813 29.2248 15.2688 28.7873L16.275 32.1123C15.7792 32.2581 15.3271 32.4404 14.9188 32.6591C14.5104 32.8779 14.2333 33.0748 14.0875 33.2498C14.4667 33.7164 15.3417 34.1248 16.7125 34.4748C18.0833 34.8248 19.5125 34.9998 21 34.9998C22.4875 34.9998 23.924 34.8248 25.3094 34.4748C26.6948 34.1248 27.5771 33.7164 27.9563 33.2498C27.8104 33.0748 27.5333 32.8779 27.125 32.6591C26.7167 32.4404 26.2646 32.2581 25.7688 32.1123L26.775 28.7873C28.2625 29.2248 29.4219 29.8227 30.2531 30.581C31.0844 31.3393 31.5 32.2289 31.5 33.2498C31.5 34.7956 30.5229 36.057 28.5688 37.0341C26.6146 38.0112 24.0917 38.4998 21 38.4998ZM21 26.8185C21.525 25.856 22.0792 24.9737 22.6625 24.1716C23.2458 23.3695 23.8146 22.6039 24.3688 21.8748C25.4479 20.4748 26.3083 19.2133 26.95 18.0904C27.5917 16.9675 27.9125 15.5748 27.9125 13.9123C27.9125 11.9873 27.2417 10.3539 25.9 9.01226C24.5583 7.67059 22.925 6.99976 21 6.99976C19.075 6.99976 17.4417 7.67059 16.1 9.01226C14.7583 10.3539 14.0875 11.9873 14.0875 13.9123C14.0875 15.5748 14.4083 16.9675 15.05 18.0904C15.6917 19.2133 16.5521 20.4748 17.6313 21.8748C18.1854 22.6039 18.7542 23.3695 19.3375 24.1716C19.9208 24.9737 20.475 25.856 21 26.8185ZM21 33.2498C20.6792 33.2498 20.3875 33.155 20.125 32.9654C19.8625 32.7758 19.6729 32.5206 19.5563 32.1998C18.8854 30.1289 18.0396 28.3935 17.0188 26.9935C15.9979 25.5935 15.0063 24.2518 14.0438 22.9685C13.1104 21.6852 12.301 20.3581 11.6156 18.9873C10.9302 17.6164 10.5875 15.9248 10.5875 13.9123C10.5875 10.9956 11.5938 8.53101 13.6063 6.51851C15.6188 4.50601 18.0833 3.49976 21 3.49976C23.9167 3.49976 26.3813 4.50601 28.3938 6.51851C30.4062 8.53101 31.4125 10.9956 31.4125 13.9123C31.4125 15.9248 31.0771 17.6164 30.4062 18.9873C29.7354 20.3581 28.9188 21.6852 27.9563 22.9685C27.0229 24.2518 26.0385 25.5935 25.0031 26.9935C23.9677 28.3935 23.1146 30.1289 22.4438 32.1998C22.3271 32.5206 22.1375 32.7758 21.875 32.9654C21.6125 33.155 21.3208 33.2498 21 33.2498ZM21 17.631C22.0208 17.631 22.8958 17.2664 23.625 16.5373C24.3542 15.8081 24.7188 14.9331 24.7188 13.9123C24.7188 12.8914 24.3542 12.0164 23.625 11.2873C22.8958 10.5581 22.0208 10.1935 21 10.1935C19.9792 10.1935 19.1042 10.5581 18.375 11.2873C17.6458 12.0164 17.2812 12.8914 17.2812 13.9123C17.2812 14.9331 17.6458 15.8081 18.375 16.5373C19.1042 17.2664 19.9792 17.631 21 17.631Z" fill="#0cb7f1f6" style="fill:#0cb7f1f6;fill-opacity:1;"/>
</g>
</svg>
