<svg width="48" height="45" viewBox="0 0 48 45" fill="none" xmlns="http://www.w3.org/2000/svg">
<path d="M17.05 44.65C15.45 44.65 14.0334 44.175 12.8 43.225C11.5667 42.275 10.7 41.05 10.2 39.55C9.66672 40.4166 9.01672 41.0916 8.25005 41.575C7.48338 42.0583 6.56672 42.3 5.50005 42.3C3.93338 42.3 2.63338 41.75 1.60005 40.65C0.566716 39.55 0.0500488 38.25 0.0500488 36.75C0.0500488 35.1166 0.558382 33.825 1.57505 32.875C2.59172 31.925 3.88338 31.4333 5.45005 31.4C4.85005 30.7333 4.38338 29.9583 4.05005 29.075C3.71672 28.1916 3.55005 27.3 3.55005 26.4C3.55005 25.1333 3.87505 23.95 4.52505 22.85C5.17505 21.75 6.10005 20.8666 7.30005 20.2C7.46672 20.6333 7.67505 21.1 7.92505 21.6C8.17505 22.1 8.43338 22.5333 8.70005 22.9C8.03338 23.3333 7.50838 23.8666 7.12505 24.5C6.74172 25.1333 6.55005 25.8 6.55005 26.5C6.55005 28.5 7.35838 29.7583 8.97505 30.275C10.5917 30.7916 12.15 31.2 13.65 31.5L14.2 32.45C13.8 33.6166 13.475 34.575 13.225 35.325C12.975 36.075 12.85 36.7666 12.85 37.4C12.85 38.5333 13.275 39.525 14.125 40.375C14.975 41.225 15.9667 41.65 17.1 41.65C18.4667 41.65 19.5917 41.075 20.475 39.925C21.3584 38.775 22.0751 37.4083 22.625 35.825C23.175 34.2416 23.6 32.6416 23.9 31.025C24.2 29.4083 24.45 28.15 24.65 27.25L27.55 28.05C27.25 29.4833 26.9 31.15 26.5 33.05C26.1 34.95 25.525 36.7583 24.775 38.475C24.025 40.1916 23.0417 41.65 21.825 42.85C20.6084 44.05 19.0167 44.65 17.05 44.65ZM5.55005 39.3C6.25005 39.3 6.84172 39.0583 7.32505 38.575C7.80838 38.0916 8.05005 37.5 8.05005 36.8C8.05005 36.1 7.80838 35.5083 7.32505 35.025C6.84172 34.5416 6.25005 34.3 5.55005 34.3C4.85005 34.3 4.25838 34.5416 3.77505 35.025C3.29172 35.5083 3.05005 36.1 3.05005 36.8C3.05005 37.5 3.29172 38.0916 3.77505 38.575C4.25838 39.0583 4.85005 39.3 5.55005 39.3ZM20.55 29.8C19.05 28.4666 17.6834 27.225 16.45 26.075C15.2167 24.925 14.1584 23.8 13.275 22.7C12.3917 21.6 11.7084 20.5166 11.225 19.45C10.7417 18.3833 10.5 17.25 10.5 16.05C10.5 14.05 11.2 12.35 12.6 10.95C14 9.54998 15.7 8.84998 17.7 8.84998C18 8.84998 18.2834 8.85831 18.55 8.87498C18.8167 8.89164 19.0834 8.93331 19.35 8.99998C19.0501 8.43331 18.8334 7.94998 18.7 7.54998C18.5667 7.14998 18.5 6.74998 18.5 6.34998C18.5 4.81664 19.0334 3.51664 20.1 2.44998C21.1667 1.38331 22.4667 0.849976 24 0.849976C25.5334 0.849976 26.8334 1.38331 27.9 2.44998C28.9667 3.51664 29.5 4.81664 29.5 6.34998C29.5 6.71664 29.4417 7.10831 29.325 7.52498C29.2084 7.94164 28.9834 8.43331 28.65 8.99998C28.9167 8.93331 29.1834 8.89164 29.45 8.87498C29.7167 8.85831 30 8.84998 30.3 8.84998C32.2001 8.84998 33.8084 9.45831 35.125 10.675C36.4417 11.8916 37.2001 13.4 37.4001 15.2C36.9334 15.1666 36.4334 15.1583 35.9001 15.175C35.3667 15.1916 34.8667 15.2333 34.4001 15.3C34.2334 14.3 33.7834 13.475 33.05 12.825C32.3167 12.175 31.4 11.85 30.3 11.85C29.0667 11.85 28.0917 12.1916 27.375 12.875C26.6584 13.5583 25.7001 14.6 24.5 16H23.45C22.2167 14.5333 21.2417 13.475 20.525 12.825C19.8084 12.175 18.8667 11.85 17.7 11.85C16.5 11.85 15.5 12.25 14.7 13.05C13.9 13.85 13.5 14.85 13.5 16.05C13.5 16.85 13.7167 17.6666 14.15 18.5C14.5834 19.3333 15.2 20.225 16 21.175C16.8 22.125 17.7667 23.125 18.9 24.175C20.0334 25.225 21.3 26.3833 22.7 27.65L20.55 29.8ZM24 8.84998C24.7001 8.84998 25.2917 8.60831 25.775 8.12498C26.2584 7.64164 26.5 7.04998 26.5 6.34998C26.5 5.64998 26.2584 5.05831 25.775 4.57498C25.2917 4.09164 24.7001 3.84998 24 3.84998C23.3 3.84998 22.7084 4.09164 22.225 4.57498C21.7417 5.05831 21.5 5.64998 21.5 6.34998C21.5 7.04998 21.7417 7.64164 22.225 8.12498C22.7084 8.60831 23.3 8.84998 24 8.84998ZM30.9 44.7C30.1667 44.7 29.4417 44.5833 28.725 44.35C28.0084 44.1166 27.3167 43.7666 26.65 43.3C26.9167 42.9 27.1834 42.45 27.45 41.95C27.7167 41.45 27.9334 40.9833 28.1 40.55C28.5667 40.9166 29.0417 41.1916 29.525 41.375C30.0084 41.5583 30.5 41.65 31 41.65C32.1667 41.65 33.1584 41.225 33.975 40.375C34.7917 39.525 35.2001 38.5333 35.2001 37.4C35.2001 36.7333 35.0667 36.025 34.8 35.275C34.5334 34.525 34.2167 33.5833 33.85 32.45L34.4001 31.5C35.9334 31.2333 37.5 30.8416 39.1 30.325C40.7 29.8083 41.5 28.55 41.5 26.55C41.5 25.0833 40.9667 23.9916 39.9001 23.275C38.8334 22.5583 37.65 22.2 36.35 22.2C34.95 22.2 33.2917 22.4666 31.375 23C29.4584 23.5333 27.2334 24.2166 24.7 25.05L23.95 22.15C26.4834 21.3166 28.7667 20.6166 30.8 20.05C32.8334 19.4833 34.6834 19.2 36.35 19.2C38.4834 19.2 40.375 19.8416 42.0251 21.125C43.6751 22.4083 44.5 24.2 44.5 26.5C44.5 27.4 44.3334 28.2833 44 29.15C43.6667 30.0166 43.2 30.7833 42.6 31.45C44.1334 31.4833 45.4167 31.9833 46.4501 32.95C47.4834 33.9166 48 35.2 48 36.8C48 38.3 47.4834 39.6 46.4501 40.7C45.4167 41.8 44.1167 42.35 42.55 42.35C41.5167 42.35 40.6 42.1083 39.8 41.625C39 41.1416 38.35 40.4666 37.85 39.6C37.3167 41.1 36.4334 42.325 35.2001 43.275C33.9667 44.225 32.5334 44.7 30.9 44.7ZM42.55 39.35C43.2167 39.35 43.7917 39.1083 44.2751 38.625C44.7584 38.1416 45 37.55 45 36.85C45 36.1833 44.75 35.5916 44.25 35.075C43.75 34.5583 43.1667 34.3 42.5 34.3C41.8334 34.3 41.25 34.55 40.75 35.05C40.25 35.55 40 36.1333 40 36.8C40 37.4666 40.2584 38.0583 40.7751 38.575C41.2917 39.0916 41.8834 39.35 42.55 39.35Z" fill="#FF0000" style="fill:#FF0000;fill-opacity:1;"/>
</svg>
