<svg width="60" height="60" viewBox="0 0 60 60" fill="none" xmlns="http://www.w3.org/2000/svg">
<path d="M56.25 34.6875C56.25 42.457 49.957 48.75 42.1875 48.75H41.25C39.1758 48.75 37.5 47.0742 37.5 45C37.5 42.9258 39.1758 41.25 41.25 41.25H42.1875C45.8086 41.25 48.75 38.3086 48.75 34.6875V33.75H41.25C37.1133 33.75 33.75 30.3867 33.75 26.25V18.75C33.75 14.6133 37.1133 11.25 41.25 11.25H48.75C52.8867 11.25 56.25 14.6133 56.25 18.75V22.5V26.25V34.6875ZM26.25 34.6875C26.25 42.457 19.957 48.75 12.1875 48.75H11.25C9.17578 48.75 7.5 47.0742 7.5 45C7.5 42.9258 9.17578 41.25 11.25 41.25H12.1875C15.8086 41.25 18.75 38.3086 18.75 34.6875V33.75H11.25C7.11328 33.75 3.75 30.3867 3.75 26.25V18.75C3.75 14.6133 7.11328 11.25 11.25 11.25H18.75C22.8867 11.25 26.25 14.6133 26.25 18.75V22.5V26.25V34.6875Z" fill="#7C4DFF" fill-opacity="0.5" style="fill:#7C4DFF;fill:color(display-p3 0.4863 0.3020 1.0000);fill-opacity:0.5;"/>
</svg>
