<svg width="72" height="72" viewBox="0 0 72 72" fill="none" xmlns="http://www.w3.org/2000/svg">
<g filter="url(#filter0_d_1_506)">
<circle cx="36" cy="36" r="30" fill="white" style="fill:white;fill-opacity:1;"/>
</g>
<mask id="mask0_1_506" style="mask-type:alpha" maskUnits="userSpaceOnUse" x="20" y="20" width="32" height="32">
<rect x="20" y="20" width="32" height="32" fill="#D9D9D9" style="fill:#D9D9D9;fill:color(display-p3 0.8510 0.8510 0.8510);fill-opacity:1;"/>
</mask>
<g mask="url(#mask0_1_506)">
<path d="M46.5333 48C43.8889 48 41.2222 47.3833 38.5333 46.15C35.8444 44.9167 33.3667 43.1667 31.1 40.9C28.8333 38.6333 27.0833 36.1556 25.85 33.4667C24.6167 30.7778 24 28.1111 24 25.4667C24 25.0476 24.1397 24.6984 24.419 24.419C24.6984 24.1397 25.0476 24 25.4667 24H30.3778C30.6889 24 30.9592 24.1093 31.1889 24.3278C31.4185 24.5463 31.5704 24.8148 31.6444 25.1333L32.5317 29.4809C32.5772 29.8121 32.5704 30.1037 32.5111 30.3555C32.4518 30.6074 32.3316 30.8239 32.1505 31.005L28.8555 34.3333C29.3889 35.2593 29.9722 36.1315 30.6055 36.95C31.2389 37.7685 31.937 38.5481 32.7 39.2889C33.4778 40.0815 34.2963 40.8093 35.1556 41.4722C36.0148 42.1352 36.9185 42.7259 37.8667 43.2445L41.0222 40.0222C41.2371 39.7926 41.4956 39.6315 41.7978 39.5389C42.1 39.4463 42.3971 39.4222 42.6889 39.4667L46.8667 40.3556C47.1926 40.4445 47.463 40.617 47.6778 40.8732C47.8926 41.1294 48 41.4161 48 41.7333V46.5333C48 46.9524 47.8603 47.3016 47.581 47.581C47.3016 47.8603 46.9524 48 46.5333 48ZM27.7667 32.2667L30.3 29.7111L29.6 26.2222H26.2333C26.3 27.1481 26.4518 28.1037 26.6889 29.0889C26.9259 30.0741 27.2852 31.1333 27.7667 32.2667ZM39.9444 44.3111C40.8407 44.7185 41.7945 45.0482 42.8056 45.3C43.8167 45.5519 44.8074 45.7037 45.7778 45.7556V42.4L42.4445 41.7222L39.9444 44.3111Z" fill="#FF0000" style="fill:#FF0000;fill-opacity:1;"/>
</g>
<defs>
<filter id="filter0_d_1_506" x="0" y="0" width="72" height="72" filterUnits="userSpaceOnUse" color-interpolation-filters="sRGB">
<feFlood flood-opacity="0" result="BackgroundImageFix"/>
<feColorMatrix in="SourceAlpha" type="matrix" values="0 0 0 0 0 0 0 0 0 0 0 0 0 0 0 0 0 0 127 0" result="hardAlpha"/>
<feOffset/>
<feGaussianBlur stdDeviation="3"/>
<feComposite in2="hardAlpha" operator="out"/>
<feColorMatrix type="matrix" values="0 0 0 0 0 0 0 0 0 0 0 0 0 0 0 0 0 0 0.25 0"/>
<feBlend mode="normal" in2="BackgroundImageFix" result="effect1_dropShadow_1_506"/>
<feBlend mode="normal" in="SourceGraphic" in2="effect1_dropShadow_1_506" result="shape"/>
</filter>
</defs>
</svg>
