
<svg width="220" height="44" viewBox="0 0 220 44" fill="none" xmlns="http://www.w3.org/2000/svg">
<g clip-path="url(#clip0_1_14)">
<path fill-rule="evenodd" clip-rule="evenodd" d="M27.8329 12.7266C26.0419 11.5299 23.9362 10.8911 21.7822 10.8911V0C26.0903 0 30.3016 1.2775 33.8837 3.67096C37.4658 6.06441 40.2576 9.46633 41.9063 13.4465C43.5549 17.4266 43.9863 21.8064 43.1458 26.0317C42.3053 30.257 40.2308 34.1382 37.1845 37.1845C34.1382 40.2308 30.257 42.3053 26.0317 43.1458C21.8064 43.9863 17.4266 43.5549 13.4465 41.9063C9.46632 40.2576 6.06441 37.4658 3.67096 33.8837C1.2775 30.3016 0 26.0903 0 21.7822H10.8911C10.8911 23.9362 11.5299 26.0419 12.7266 27.8329C13.9233 29.624 15.6242 31.0199 17.6144 31.8442C19.6044 32.6686 21.7943 32.8842 23.9069 32.4639C26.0196 32.0438 27.9601 31.0065 29.4834 29.4834C31.0065 27.9601 32.0438 26.0196 32.4639 23.9069C32.8842 21.7943 32.6686 19.6044 31.8442 17.6144C31.0199 15.6242 29.624 13.9233 27.8329 12.7266Z" fill="#7C4DFF" style="fill:#7C4DFF;fill:color(display-p3 0.4863 0.3020 1.0000);fill-opacity:1;"/>
<path fill-rule="evenodd" clip-rule="evenodd" d="M10.8911 5.75586e-06C10.8911 1.43024 10.6094 2.84648 10.0621 4.16785C9.51472 5.48921 8.71249 6.68983 7.70116 7.70117C6.68983 8.71251 5.48921 9.51473 4.16784 10.0621C2.84647 10.6094 1.43023 10.8911 4.7606e-07 10.8911L0 21.7822C2.86047 21.7822 5.69294 21.2188 8.33568 20.1241C10.9784 19.0295 13.3797 17.425 15.4023 15.4023C17.425 13.3797 19.0294 10.9784 20.1241 8.33568C21.2188 5.69294 21.7822 2.86047 21.7822 0L10.8911 5.75586e-06Z" fill="#7C4DFF" style="fill:#7C4DFF;fill:color(display-p3 0.4863 0.3020 1.0000);fill-opacity:1;"/>
<path d="M136.813 15.7402H131.528V32.5259H136.813V15.7402Z" fill="#7C4DFF" style="fill:#7C4DFF;fill:color(display-p3 0.4863 0.3020 1.0000);fill-opacity:1;"/>
<path d="M132.117 12.5973C132.669 13.1499 133.359 13.4262 134.188 13.4262C135.017 13.4262 135.696 13.1499 136.226 12.5973C136.756 12.0217 137.021 11.3309 137.021 10.525C137.021 9.6961 136.756 9.0053 136.226 8.45271C135.696 7.90008 135.017 7.62378 134.188 7.62378C133.359 7.62378 132.669 7.90008 132.117 8.45271C131.586 9.0053 131.321 9.6961 131.321 10.525C131.321 11.3309 131.586 12.0217 132.117 12.5973Z" fill="#7C4DFF" style="fill:#7C4DFF;fill:color(display-p3 0.4863 0.3020 1.0000);fill-opacity:1;"/>
<path d="M55.7147 32.526V8.14185H61.1372V27.7598H71.9478V32.526H55.7147Z" fill="#7C4DFF" style="fill:#7C4DFF;fill:color(display-p3 0.4863 0.3020 1.0000);fill-opacity:1;"/>
<path fill-rule="evenodd" clip-rule="evenodd" d="M81.713 32.9059C79.9861 32.9059 78.4204 32.526 77.0158 31.7661C75.6342 30.9833 74.5406 29.9241 73.7346 28.5886C72.9288 27.2531 72.5258 25.7564 72.5258 24.0986C72.5258 22.4408 72.9288 20.9556 73.7346 19.6432C74.5406 18.3307 75.6342 17.2945 77.0158 16.5347C78.3973 15.7518 79.9631 15.3604 81.713 15.3604C83.463 15.3604 85.0287 15.7403 86.4102 16.5001C87.7917 17.26 88.8855 18.3077 89.6914 19.6432C90.4973 20.9556 90.9003 22.4408 90.9003 24.0986C90.9003 25.7564 90.4973 27.2531 89.6914 28.5886C88.8855 29.9241 87.7917 30.9833 86.4102 31.7661C85.0287 32.526 83.463 32.9059 81.713 32.9059ZM81.713 28.1051C82.4729 28.1051 83.1406 27.9439 83.7163 27.6215C84.2919 27.2762 84.7294 26.8042 85.0287 26.2055C85.3511 25.5838 85.5122 24.8815 85.5122 24.0986C85.5122 23.3157 85.3511 22.6365 85.0287 22.0609C84.7063 21.4622 84.2574 21.0017 83.6817 20.6793C83.1291 20.3339 82.4729 20.1613 81.713 20.1613C80.9762 20.1613 80.32 20.3339 79.7443 20.6793C79.1687 21.0017 78.7197 21.4622 78.3973 22.0609C78.0749 22.6596 77.9139 23.3503 77.9139 24.1331C77.9139 24.893 78.0749 25.5838 78.3973 26.2055C78.7197 26.8042 79.1687 27.2762 79.7443 27.6215C80.32 27.9439 80.9762 28.1051 81.713 28.1051Z" fill="#7C4DFF" style="fill:#7C4DFF;fill:color(display-p3 0.4863 0.3020 1.0000);fill-opacity:1;"/>
<path fill-rule="evenodd" clip-rule="evenodd" d="M95.0854 39.0882C96.4899 39.7329 98.1132 40.0553 99.9554 40.0553C101.751 40.0553 103.352 39.6983 104.756 38.9845C106.161 38.2707 107.266 37.2807 108.072 36.0143C108.878 34.7479 109.281 33.2513 109.281 31.5243V15.7402H104.1V16.868C103.715 16.5437 103.277 16.2714 102.787 16.0511C101.889 15.6136 100.865 15.3948 99.7136 15.3948C98.1709 15.3948 96.8008 15.7632 95.6035 16.5C94.406 17.2138 93.4621 18.2039 92.7713 19.4703C92.0804 20.7138 91.7352 22.1183 91.7352 23.6841C91.7352 25.2268 92.0804 26.6313 92.7713 27.8977C93.4621 29.1642 94.406 30.1658 95.6035 30.9026C96.8008 31.6394 98.1709 32.0078 99.7136 32.0078C100.842 32.0078 101.866 31.7891 102.787 31.3516C103.234 31.1397 103.637 30.89 103.996 30.6023V31.6625C103.996 32.8367 103.616 33.7463 102.857 34.391C102.12 35.0358 101.095 35.358 99.7826 35.358C98.7235 35.358 97.8139 35.1739 97.0541 34.8054C96.3173 34.4371 95.6495 33.8959 95.0508 33.1821L91.8042 36.4287C92.6101 37.58 93.7039 38.4666 95.0854 39.0882ZM102.615 26.827C102.085 27.1494 101.452 27.3106 100.715 27.3106C99.9783 27.3106 99.3336 27.1494 98.781 26.827C98.2513 26.5047 97.8369 26.0672 97.5376 25.5146C97.2382 24.939 97.0886 24.3287 97.0886 23.6841C97.0886 22.9933 97.2382 22.3716 97.5376 21.819C97.8369 21.2664 98.2629 20.8289 98.8155 20.5065C99.3681 20.1841 100.001 20.0229 100.715 20.0229C101.452 20.0229 102.085 20.1841 102.615 20.5065C103.167 20.8289 103.582 21.2664 103.858 21.819C104.157 22.3716 104.307 22.9933 104.307 23.6841C104.307 24.3748 104.157 24.9965 103.858 25.5491C103.582 26.0787 103.167 26.5047 102.615 26.827Z" fill="#7C4DFF" style="fill:#7C4DFF;fill:color(display-p3 0.4863 0.3020 1.0000);fill-opacity:1;"/>
<path fill-rule="evenodd" clip-rule="evenodd" d="M120.402 32.9059C118.675 32.9059 117.109 32.526 115.705 31.7661C114.323 30.9833 113.229 29.9241 112.423 28.5886C111.617 27.2531 111.214 25.7564 111.214 24.0986C111.214 22.4408 111.617 20.9556 112.423 19.6432C113.229 18.3307 114.323 17.2945 115.705 16.5347C117.086 15.7518 118.652 15.3604 120.402 15.3604C122.151 15.3604 123.717 15.7403 125.098 16.5001C126.48 17.26 127.574 18.3077 128.38 19.6432C129.186 20.9556 129.589 22.4408 129.589 24.0986C129.589 25.7564 129.186 27.2531 128.38 28.5886C127.574 29.9241 126.48 30.9833 125.098 31.7661C123.717 32.526 122.151 32.9059 120.402 32.9059ZM120.402 28.1051C121.161 28.1051 121.829 27.9439 122.405 27.6215C122.98 27.2762 123.418 26.8042 123.717 26.2055C124.04 25.5838 124.201 24.8815 124.201 24.0986C124.201 23.3157 124.04 22.6365 123.717 22.0609C123.395 21.4622 122.946 21.0017 122.37 20.6793C121.818 20.3339 121.161 20.1613 120.402 20.1613C119.665 20.1613 119.008 20.3339 118.433 20.6793C117.857 21.0017 117.408 21.4622 117.086 22.0609C116.763 22.6596 116.602 23.3503 116.602 24.1331C116.602 24.893 116.763 25.5838 117.086 26.2055C117.408 26.8042 117.857 27.2762 118.433 27.6215C119.008 27.9439 119.665 28.1051 120.402 28.1051Z" fill="#7C4DFF" style="fill:#7C4DFF;fill:color(display-p3 0.4863 0.3020 1.0000);fill-opacity:1;"/>
<path fill-rule="evenodd" clip-rule="evenodd" d="M149.514 32.8713C148.387 32.8713 147.35 32.6526 146.406 32.2151C145.909 31.9848 145.46 31.71 145.059 31.3904V39.6063H139.844V15.7402H145.128V16.8987C145.511 16.5852 145.937 16.3141 146.406 16.0856C147.35 15.625 148.387 15.3948 149.514 15.3948C151.103 15.3948 152.508 15.7748 153.728 16.5346C154.971 17.2944 155.939 18.3306 156.629 19.6431C157.344 20.9555 157.7 22.4522 157.7 24.133C157.7 25.814 157.344 27.3106 156.629 28.6231C155.939 29.9356 154.971 30.9716 153.728 31.7315C152.508 32.4914 151.103 32.8713 149.514 32.8713ZM148.548 28.105C149.307 28.105 149.964 27.9323 150.516 27.5869C151.092 27.2416 151.541 26.7694 151.863 26.1709C152.186 25.5722 152.347 24.8929 152.347 24.133C152.347 23.3502 152.186 22.6595 151.863 22.0608C151.541 21.4621 151.092 21.0016 150.516 20.6792C149.964 20.3338 149.319 20.1612 148.582 20.1612C147.845 20.1612 147.189 20.3338 146.614 20.6792C146.06 21.0016 145.624 21.4621 145.301 22.0608C144.979 22.6595 144.818 23.3502 144.818 24.133C144.818 24.8929 144.967 25.5722 145.266 26.1709C145.589 26.7694 146.038 27.2416 146.614 27.5869C147.189 27.9323 147.833 28.105 148.548 28.105Z" fill="#7C4DFF" style="fill:#7C4DFF;fill:color(display-p3 0.4863 0.3020 1.0000);fill-opacity:1;"/>
<path d="M162.872 32.5606C163.839 32.8139 164.817 32.9405 165.807 32.9405C167.902 32.9405 169.56 32.457 170.781 31.4899C172.024 30.5229 172.646 29.2219 172.646 27.5871C172.646 26.5279 172.451 25.6759 172.059 25.0313C171.668 24.3635 171.161 23.8339 170.539 23.4425C169.917 23.051 169.261 22.7401 168.57 22.5099C167.88 22.2796 167.223 22.0839 166.602 21.9227C165.98 21.7615 165.474 21.5774 165.082 21.3701C164.691 21.1629 164.495 20.8865 164.495 20.5412C164.495 20.2188 164.645 19.977 164.943 19.8158C165.243 19.6317 165.692 19.5396 166.291 19.5396C166.912 19.5396 167.545 19.6662 168.19 19.9195C168.858 20.1727 169.457 20.6104 169.986 21.232L172.991 18.1926C172.232 17.2255 171.242 16.5002 170.021 16.0167C168.824 15.5102 167.511 15.2568 166.084 15.2568C164.726 15.2568 163.54 15.4871 162.527 15.9475C161.513 16.4081 160.73 17.0413 160.177 17.8472C159.625 18.63 159.349 19.5626 159.349 20.6449C159.349 21.658 159.545 22.4984 159.936 23.1662C160.327 23.8108 160.834 24.3175 161.455 24.6858C162.077 25.0542 162.734 25.3421 163.424 25.5492C164.115 25.7565 164.771 25.9522 165.393 26.1365C166.014 26.2977 166.521 26.4934 166.912 26.7236C167.327 26.9309 167.534 27.2417 167.534 27.6561C167.534 27.9785 167.361 28.2317 167.016 28.416C166.694 28.6002 166.222 28.6923 165.6 28.6923C164.702 28.6923 163.873 28.5311 163.114 28.2087C162.353 27.8634 161.697 27.3914 161.145 26.7927L158.14 29.8321C158.716 30.4537 159.406 31.0064 160.212 31.4899C161.041 31.9504 161.928 32.3073 162.872 32.5606Z" fill="#7C4DFF" style="fill:#7C4DFF;fill:color(display-p3 0.4863 0.3020 1.0000);fill-opacity:1;"/>
<path d="M182.282 32.9058C180.74 32.9058 179.37 32.595 178.173 31.9733C176.998 31.3285 176.077 30.4536 175.41 29.3483C174.741 28.2201 174.408 26.9307 174.408 25.48V15.7402H179.692V25.411C179.692 25.9866 179.784 26.4817 179.969 26.8961C180.176 27.3106 180.475 27.633 180.866 27.8632C181.258 28.0935 181.73 28.2086 182.282 28.2086C183.065 28.2086 183.687 27.9668 184.148 27.4832C184.608 26.9767 184.838 26.286 184.838 25.411V15.7402H190.122V25.4455C190.122 26.9192 189.789 28.2201 189.12 29.3483C188.453 30.4536 187.533 31.3285 186.357 31.9733C185.183 32.595 183.825 32.9058 182.282 32.9058Z" fill="#7C4DFF" style="fill:#7C4DFF;fill:color(display-p3 0.4863 0.3020 1.0000);fill-opacity:1;"/>
<path d="M198.034 15.7402H192.749V32.5259H198.034V22.717C198.034 22.1414 198.149 21.6578 198.379 21.2664C198.633 20.875 198.967 20.5756 199.381 20.3684C199.796 20.1381 200.268 20.0229 200.797 20.0229C201.557 20.0229 202.19 20.2647 202.696 20.7483C203.227 21.2088 203.491 21.8651 203.491 22.717V32.5259H208.776V22.717C208.776 22.1414 208.891 21.6578 209.121 21.2664C209.375 20.875 209.708 20.5756 210.123 20.3684C210.537 20.1381 211.009 20.0229 211.539 20.0229C212.299 20.0229 212.932 20.2647 213.438 20.7483C213.967 21.2088 214.232 21.8651 214.232 22.717V32.5259H219.518V22.1298C219.518 20.7253 219.218 19.5279 218.619 18.5378C218.043 17.5246 217.249 16.7533 216.236 16.2238C215.246 15.6711 214.106 15.3948 212.816 15.3948C211.504 15.3948 210.318 15.6826 209.259 16.2583C208.571 16.625 207.97 17.0984 207.455 17.6782C206.974 17.0717 206.39 16.5754 205.701 16.1892C204.781 15.6596 203.733 15.3948 202.559 15.3948C201.315 15.3948 200.199 15.6596 199.209 16.1892C198.778 16.4095 198.387 16.6734 198.034 16.9808V15.7402Z" fill="#7C4DFF" style="fill:#7C4DFF;fill:color(display-p3 0.4863 0.3020 1.0000);fill-opacity:1;"/>
</g>
<defs>
<clipPath id="clip0_1_14">
<rect width="220" height="43.5644" fill="white" style="fill:white;fill-opacity:1;"/>
</clipPath>
</defs>
</svg>
