<svg width="48" height="48" viewBox="0 0 48 48" fill="none" xmlns="http://www.w3.org/2000/svg">
<mask id="mask0_1_389" style="mask-type:alpha" maskUnits="userSpaceOnUse" x="0" y="0" width="48" height="48">
<rect width="48" height="48" fill="#D9D9D9" style="fill:#D9D9D9;fill:color(display-p3 0.8510 0.8510 0.8510);fill-opacity:1;"/>
</mask>
<g mask="url(#mask0_1_389)">
<path d="M22.5001 39.1384V24.8614L10 17.623V31.5537C10 31.6563 10.0257 31.7525 10.077 31.8422C10.1282 31.932 10.2051 32.0089 10.3077 32.073L22.5001 39.1384ZM25.5 39.1384L37.6923 32.073C37.7949 32.0089 37.8718 31.932 37.9231 31.8422C37.9744 31.7525 38 31.6563 38 31.5537V17.623L25.5 24.8614V39.1384ZM22.1923 42.4114L8.80776 34.7076C8.23853 34.3794 7.79494 33.9409 7.47701 33.3922C7.15904 32.8435 7.00006 32.2409 7.00006 31.5845V16.4153C7.00006 15.7589 7.15904 15.1564 7.47701 14.6077C7.79494 14.059 8.23853 13.6205 8.80776 13.2923L22.1923 5.58849C22.7615 5.26029 23.3641 5.09619 24 5.09619C24.6359 5.09619 25.2385 5.26029 25.8077 5.58849L39.1923 13.2923C39.7615 13.6205 40.2051 14.059 40.523 14.6077C40.841 15.1564 41 15.7589 41 16.4153V31.5845C41 32.2409 40.841 32.8435 40.523 33.3922C40.2051 33.9409 39.7615 34.3794 39.1923 34.7076L25.8077 42.4114C25.2385 42.7396 24.6359 42.9037 24 42.9037C23.3641 42.9037 22.7615 42.7396 22.1923 42.4114ZM31.7115 17.8L36.3501 15.1384L24.3077 8.17304C24.2051 8.10894 24.1026 8.07689 24 8.07689C23.8974 8.07689 23.7949 8.10894 23.6923 8.17304L19.35 10.673L31.7115 17.8ZM24 22.2769L28.6501 19.5846L16.3 12.4461L11.65 15.1384L24 22.2769Z" fill="#7C4DFF" style="fill:#7C4DFF;fill:color(display-p3 0.4863 0.3020 1.0000);fill-opacity:1;"/>
</g>
</svg>
