<svg width="48" height="48" viewBox="0 0 48 48" fill="none" xmlns="http://www.w3.org/2000/svg">
<mask id="mask0_1_396" style="mask-type:alpha" maskUnits="userSpaceOnUse" x="0" y="0" width="48" height="48">
<rect width="48" height="48" fill="#D9D9D9" style="fill:#D9D9D9;fill:color(display-p3 0.8510 0.8510 0.8510);fill-opacity:1;"/>
</mask>
<g mask="url(#mask0_1_396)">
<path d="M12.3846 27.6153H17.6384L27.9077 17.3461C28.1436 17.0974 28.3205 16.823 28.4384 16.523C28.5564 16.223 28.6153 15.9281 28.6153 15.6384C28.6153 15.3487 28.5512 15.0641 28.423 14.7846C28.2948 14.5051 28.1231 14.241 27.9077 13.9923L26.0884 12.0923C25.8525 11.8564 25.5865 11.6795 25.2904 11.5615C24.9942 11.4436 24.691 11.3846 24.3808 11.3846C24.0911 11.3846 23.7962 11.4436 23.4962 11.5615C23.1962 11.6795 22.9218 11.8564 22.6731 12.0923L12.3846 22.3615V27.6153ZM14.7692 25.2308V23.3308L20.7423 17.3576L21.7039 18.2961L22.6231 19.2768L16.6692 25.2308H14.7692ZM21.7039 18.2961L22.6231 19.2768L20.7423 17.3576L21.7039 18.2961ZM22.9846 27.6153H35.6154V24.6154H25.9846L22.9846 27.6153ZM5.00005 42.0768V8.6154C5.00005 7.60514 5.35005 6.75 6.05005 6.05C6.75005 5.35 7.60518 5 8.61545 5H39.3845C40.3948 5 41.25 5.35 41.95 6.05C42.65 6.75 43 7.60514 43 8.6154V31.3845C43 32.3948 42.65 33.2499 41.95 33.9499C41.25 34.6499 40.3948 34.9999 39.3845 34.9999H12.0769L5.00005 42.0768ZM10.8 32H39.3845C39.5384 32 39.6795 31.9359 39.8077 31.8077C39.9359 31.6794 40 31.5384 40 31.3845V8.6154C40 8.46154 39.9359 8.32049 39.8077 8.19225C39.6795 8.06405 39.5384 7.99995 39.3845 7.99995H8.61545C8.46158 7.99995 8.32053 8.06405 8.1923 8.19225C8.0641 8.32049 8 8.46154 8 8.6154V34.7692L10.8 32Z" fill="#FF0000" style="fill:#FF0000;fill-opacity:1;"/>
</g>
</svg>
